<svg width="32" height="32" viewBox="0 0 32 32" fill="none" xmlns="http://www.w3.org/2000/svg">
<path fill-rule="evenodd" clip-rule="evenodd" d="M5.26022 11.1961H26.7689C27.4444 11.1961 27.9903 11.806 27.9903 12.5587V26.6002C27.9903 27.3529 27.4444 27.9636 26.7689 27.9636H5.26022C4.58478 27.9636 4.03711 27.3529 4.03711 26.6002V12.5587C4.03711 11.806 4.58473 11.1961 5.26022 11.1961ZM5.95613 8.80103C5.55763 8.80103 5.23474 8.53286 5.23474 8.20161C5.23474 7.87162 5.55763 7.60344 5.95613 7.60344H26.0726C26.4706 7.60344 26.7927 7.87161 26.7927 8.20161C26.7927 8.53286 26.4706 8.80103 26.0726 8.80103H5.95613ZM8.25018 5.20783C7.90849 5.20783 7.6303 4.96556 7.6303 4.66606V4.55203C7.6303 4.25252 7.90849 4.01025 8.25018 4.01025H23.777C24.1187 4.01025 24.3969 4.25252 24.3969 4.55203V4.66606C24.3969 4.96556 24.1187 5.20783 23.777 5.20783H8.25018Z" fill="white"/>
</svg>
