<?xml version="1.0" encoding="utf-8"?>
<!-- Generator: Adobe Illustrator 27.5.0, SVG Export Plug-In . SVG Version: 6.00 Build 0)  -->
<svg version="1.1" id="Layer_1" xmlns="http://www.w3.org/2000/svg" xmlns:xlink="http://www.w3.org/1999/xlink" x="0px" y="0px"
	 viewBox="0 0 64 64" style="enable-background:new 0 0 64 64;" xml:space="preserve">
<style type="text/css">
	.st0{fill:#FFFFFF;fill-opacity:0.2;}
	.st1{fill:#FFFFFF;fill-opacity:0.1;}
	.st2{fill:#FFFFFF;}
</style>
<g>
	<path class="st0" d="M56,28.5C56,28.5,56,28.5,56,28.5v0.2c0,0.2,0,0.3,0,0.5c-0.1,0.3-0.2,0.6-0.3,0.8c-0.2,0.4-0.6,0.7-1,1
		L33,43.5c-0.3,0.2-0.7,0.3-1,0.3c-0.3,0-0.5-0.1-0.8-0.2c0,0,0,0,0,0c-0.1,0-0.1,0-0.2-0.1L9.3,30.9c-0.4-0.2-0.7-0.5-1-0.9
		c-0.1-0.3-0.2-0.5-0.3-0.8c0-0.2,0-0.3,0-0.5c0,0,0-0.1,0-0.1s0-0.1,0-0.1c0-1.7,0.5-3.4,1.3-4.9c0.9-1.5,2.1-2.7,3.6-3.6L31,9.6
		c0.3-0.2,0.6-0.3,1-0.3c0.3,0,0.7,0.1,1,0.3l18.1,10.5c1.5,0.9,2.7,2.1,3.6,3.6c0.5,0.8,0.8,1.7,1,2.6C55.9,26.9,56,27.7,56,28.5z"
		/>
	<path class="st1" d="M56,30.1v21.8c0,0.2,0,0.4-0.1,0.6c0,0.2-0.1,0.3-0.1,0.5c-0.1,0.2-0.2,0.4-0.3,0.6c0,0.1-0.1,0.2-0.2,0.2
		c0,0.1-0.1,0.1-0.2,0.2c0,0,0,0,0,0c-0.3,0.3-0.6,0.5-1,0.7c-0.2,0.1-0.3,0.1-0.5,0.1c-0.1,0-0.2,0-0.2,0c-0.1,0-0.2,0-0.2,0H10.9
		c-0.4,0-0.8-0.1-1.1-0.2c-0.3-0.2-0.7-0.4-0.9-0.6c-0.5-0.5-0.8-1.3-0.8-2V30.1c0-0.3,0-0.6,0-0.9c0,0.3,0.2,0.6,0.3,0.8
		c0.2,0.4,0.6,0.7,1,0.9L31,43.5c0.1,0,0.1,0.1,0.2,0.1c0,0,0,0,0,0c0.2,0.1,0.5,0.2,0.8,0.2c0.3,0,0.7-0.1,1-0.3l21.7-12.5
		c0.4-0.2,0.7-0.6,1-1c0.1-0.3,0.2-0.5,0.3-0.8C56,29.4,56,29.7,56,30.1z"/>
	<path class="st0" d="M56,28.1v0.4c0-0.8-0.1-1.5-0.3-2.3C55.9,26.8,56,27.4,56,28.1z"/>
	<path class="st0" d="M56,29.1c0-0.2,0-0.3,0-0.5v23.1c0,0.2,0,0.4-0.1,0.6c0,0.2-0.1,0.3-0.1,0.5c-0.1,0.2-0.2,0.4-0.3,0.6
		c0,0.1-0.1,0.2-0.2,0.2c0,0.1-0.1,0.1-0.2,0.2c0,0,0,0,0,0c-0.3,0.3-0.6,0.5-1,0.7c-0.2,0.1-0.3,0.1-0.5,0.1c-0.1,0-0.2,0-0.2,0
		c-0.1,0-0.2,0-0.2,0h-0.1c-1.8,0-3.5-0.5-5-1.3l-16.9-9.8c0.2,0.1,0.5,0.2,0.8,0.2c0.3,0,0.7-0.1,1-0.3l21.7-12.5
		c0.4-0.2,0.7-0.6,1-1C55.8,29.7,55.9,29.4,56,29.1z"/>
	<path class="st2" d="M48,27.4c0-0.3-0.1-0.6-0.2-0.9c-0.1-0.3-0.3-0.5-0.5-0.8s-0.5-0.4-0.8-0.5C46.3,25.1,46,25,45.6,25H18.4
		c-0.3,0-0.6,0.1-0.9,0.2c-0.3,0.1-0.5,0.3-0.8,0.5c-0.2,0.2-0.4,0.5-0.5,0.8C16.1,26.7,16,27,16,27.4v7.4l15,8.7
		c0.3,0.2,0.6,0.3,1,0.3s0.7-0.1,1-0.3l15-8.7V27.4z"/>
</g>
</svg>
