<svg width="64" height="64" viewBox="0 0 64 64" fill="none" xmlns="http://www.w3.org/2000/svg">
<path d="M16.37 23H47.63C49.8499 23 51.9788 23.8818 53.5485 25.4515C55.1182 27.0212 56 29.1501 56 31.37V53.12C56 53.8838 55.6966 54.6164 55.1565 55.1565C54.6164 55.6966 53.8838 56 53.12 56H10.88C10.5018 56 10.1273 55.9255 9.77787 55.7808C9.42845 55.636 9.11097 55.4239 8.84353 55.1565C8.30343 54.6164 8 53.8838 8 53.12V31.37C8 29.1501 8.88184 27.0212 10.4515 25.4515C12.0212 23.8818 14.1501 23 16.37 23Z" fill="white" fill-opacity="0.1"/>
<path d="M56.0009 53.12V29.38C55.9982 27.687 55.3238 26.0642 54.1257 24.8681C52.9277 23.6719 51.3039 23 49.6109 23H32.2409C29.8109 29.73 27.6309 36.43 27.6309 37.19V41.33C27.6319 41.7834 27.7515 42.2287 27.9778 42.6217C28.2041 43.0146 28.5292 43.3415 28.9209 43.57L48.1509 54.67C49.672 55.5443 51.3964 56.003 53.1509 56C53.9095 55.9921 54.6343 55.6852 55.168 55.1459C55.7016 54.6067 56.0009 53.8787 56.0009 53.12Z" fill="white" fill-opacity="0.2"/>
<path d="M56 29.82C56.0009 28.1095 55.5512 26.4289 54.6963 24.9473C53.8414 23.4656 52.6114 22.2353 51.13 21.38L33 10.91C32.696 10.7345 32.3511 10.6421 32 10.6421C31.6489 10.6421 31.304 10.7345 31 10.91L12.87 21.38C11.3886 22.2353 10.1586 23.4656 9.30369 24.9473C8.44878 26.4289 7.99914 28.1095 8 29.82C8 29.82 8 29.82 8 29.88C8 29.94 8 30 8 30C7.99975 30.4524 8.11889 30.8968 8.3454 31.2883C8.57191 31.6799 8.89775 32.0047 9.29 32.23L31 44.79C31.304 44.9656 31.6489 45.058 32 45.058C32.3511 45.058 32.696 44.9656 33 44.79L54.71 32.25C55.1052 32.0231 55.433 31.6951 55.6596 31.2997C55.8863 30.9043 56.0038 30.4558 56 30C56 29.95 56 29.91 56 29.86C56 29.81 56 29.84 56 29.82Z" fill="#A7A7A7"/>
<path d="M48 28.6801C48 28.3715 47.9392 28.0659 47.8211 27.7808C47.703 27.4957 47.5299 27.2366 47.3117 27.0184C47.0935 26.8002 46.8344 26.6271 46.5493 26.509C46.2642 26.3909 45.9586 26.3301 45.65 26.3301H18.36C18.0506 26.3288 17.7439 26.3886 17.4576 26.5061C17.1714 26.6236 16.9111 26.7965 16.6918 27.0149C16.4726 27.2332 16.2986 27.4927 16.1798 27.7785C16.0611 28.0642 16 28.3707 16 28.6801V36.1301L31 44.7901C31.304 44.9656 31.6489 45.058 32 45.058C32.3511 45.058 32.696 44.9656 33 44.7901L48 36.1301V28.6801Z" fill="white"/>
</svg>
