<svg width="30" height="30" viewBox="0 0 30 30" fill="none" xmlns="http://www.w3.org/2000/svg">
<path d="M20.9272 5.23584C21.9248 5.23584 22.7778 5.59002 23.4861 6.29838C24.1945 7.00673 24.5487 7.8597 24.5487 8.85727V20.9287C24.5487 21.9263 24.1945 22.7792 23.4861 23.4876C22.7778 24.1959 21.9248 24.5501 20.9272 24.5501H18.5632V17.0684H21.0656L21.4428 14.1511H18.5632V12.2901C18.5632 11.8206 18.6617 11.4686 18.8587 11.2338C19.0557 10.9991 19.4393 10.8817 20.0093 10.8817L21.5434 10.8692V8.26627C21.0153 8.19082 20.2692 8.1531 19.3051 8.1531C18.1651 8.1531 17.2534 8.48842 16.5702 9.15905C15.887 9.82969 15.5454 10.777 15.5454 12.0009V14.1511H13.0305V17.0684H15.5454V24.5501H8.8558C7.85823 24.5501 7.00527 24.1959 6.29691 23.4876C5.58855 22.7792 5.23438 21.9263 5.23438 20.9287V8.85727C5.23438 7.8597 5.58855 7.00673 6.29691 6.29838C7.00527 5.59002 7.85823 5.23584 8.8558 5.23584H20.9272Z" fill="white" fill-opacity="0.8"/>
</svg>
