<svg width="32" height="32" viewBox="0 0 32 32" fill="none" xmlns="http://www.w3.org/2000/svg">
<path d="M6.66667 4H12C12.7072 4 13.3855 4.28095 13.8856 4.78105C14.3857 5.28115 14.6667 5.95942 14.6667 6.66667V12C14.6667 12.7072 14.3857 13.3855 13.8856 13.8856C13.3855 14.3857 12.7072 14.6667 12 14.6667H6.66667C5.95942 14.6667 5.28115 14.3857 4.78105 13.8856C4.28095 13.3855 4 12.7072 4 12V6.66667C4 5.95942 4.28095 5.28115 4.78105 4.78105C5.28115 4.28095 5.95942 4 6.66667 4Z" fill="white"/>
<path d="M20 4H25.3333C26.0406 4 26.7189 4.28095 27.219 4.78105C27.719 5.28115 28 5.95942 28 6.66667V12C28 12.7072 27.719 13.3855 27.219 13.8856C26.7189 14.3857 26.0406 14.6667 25.3333 14.6667H20C19.2928 14.6667 18.6145 14.3857 18.1144 13.8856C17.6143 13.3855 17.3333 12.7072 17.3333 12V6.66667C17.3333 5.95942 17.6143 5.28115 18.1144 4.78105C18.6145 4.28095 19.2928 4 20 4Z" fill="white"/>
<path d="M12 17.3333H6.66667C5.95942 17.3333 5.28115 17.6143 4.78105 18.1144C4.28095 18.6145 4 19.2928 4 20V25.3333C4 26.0406 4.28095 26.7189 4.78105 27.219C5.28115 27.719 5.95942 28 6.66667 28H12C12.7072 28 13.3855 27.719 13.8856 27.219C14.3857 26.7189 14.6667 26.0406 14.6667 25.3333V20C14.6667 19.2928 14.3857 18.6145 13.8856 18.1144C13.3855 17.6143 12.7072 17.3333 12 17.3333Z" fill="white"/>
<path d="M20 17.3333H25.3333C26.0406 17.3333 26.7189 17.6143 27.219 18.1144C27.719 18.6145 28 19.2928 28 20V25.3333C28 26.0406 27.719 26.7189 27.219 27.219C26.7189 27.719 26.0406 28 25.3333 28H20C19.2928 28 18.6145 27.719 18.1144 27.219C17.6143 26.7189 17.3333 26.0406 17.3333 25.3333V20C17.3333 19.2928 17.6143 18.6145 18.1144 18.1144C18.6145 17.6143 19.2928 17.3333 20 17.3333Z" fill="white"/>
</svg>
