<svg width="580" height="240" viewBox="0 0 580 240" fill="none" xmlns="http://www.w3.org/2000/svg">
<path class = 'homepageMovingLine' d="M504.5 64.5C504.5 65.2275 504.191 65.9862 503.508 66.7816C502.822 67.5804 501.78 68.3919 500.372 69.2063C497.555 70.8351 493.368 72.4229 487.93 73.9442C477.062 76.9847 461.313 79.7285 441.823 82.0347C402.85 86.6463 348.995 89.5 289.5 89.5C230.005 89.5 176.15 86.6463 137.177 82.0347C117.687 79.7285 101.938 76.9847 91.0698 73.9442C85.632 72.4229 81.4453 70.8351 78.6285 69.2063C77.2201 68.3919 76.1776 67.5804 75.492 66.7816C74.8094 65.9862 74.5 65.2275 74.5 64.5C74.5 63.7725 74.8094 63.0138 75.492 62.2184C76.1776 61.4196 77.2201 60.6081 78.6285 59.7937C81.4453 58.1649 85.632 56.5771 91.0698 55.0558C101.938 52.0153 117.687 49.2715 137.177 46.9653C176.15 42.3537 230.005 39.5 289.5 39.5C348.995 39.5 402.85 42.3537 441.823 46.9653C461.313 49.2715 477.062 52.0153 487.93 55.0558C493.368 56.5771 497.555 58.1649 500.372 59.7937C501.78 60.6081 502.822 61.4196 503.508 62.2184C504.191 63.0138 504.5 63.7725 504.5 64.5Z" stroke="black"/>
<path class = 'homepageMovingLine' d="M476.624 87.2015C476.624 87.8152 476.363 88.4613 475.776 89.1458C475.185 89.8337 474.284 90.536 473.062 91.243C470.616 92.6571 466.977 94.0378 462.245 95.3618C452.787 98.0076 439.079 100.396 422.111 102.404C388.183 106.419 341.297 108.903 289.499 108.903C237.702 108.903 190.816 106.419 156.888 102.404C139.92 100.396 126.211 98.0076 116.754 95.3618C112.022 94.0378 108.383 92.6571 105.937 91.243C104.714 90.536 103.813 89.8337 103.223 89.1458C102.636 88.4613 102.375 87.8152 102.375 87.2015C102.375 86.5878 102.636 85.9417 103.223 85.2572C103.813 84.5692 104.714 83.867 105.937 83.16C108.383 81.7458 112.022 80.3652 116.754 79.0412C126.211 76.3954 139.92 74.007 156.888 71.9992C190.816 67.9845 237.702 65.5 289.499 65.5C341.297 65.5 388.183 67.9845 422.111 71.9992C439.079 74.007 452.787 76.3954 462.245 79.0412C466.977 80.3652 470.616 81.7458 473.062 83.16C474.284 83.867 475.185 84.5692 475.776 85.2572C476.363 85.9417 476.624 86.5878 476.624 87.2015Z" stroke="black"/>
<path class = 'homepageMovingLine' d="M449.821 109.03C449.821 109.534 449.608 110.072 449.112 110.65C448.613 111.231 447.848 111.828 446.804 112.432C444.715 113.64 441.603 114.821 437.549 115.956C429.448 118.222 417.702 120.269 403.159 121.989C374.081 125.43 333.897 127.56 289.501 127.56C245.104 127.56 204.92 125.43 175.842 121.989C161.299 120.269 149.553 118.222 141.452 115.956C137.398 114.821 134.286 113.64 132.197 112.432C131.153 111.828 130.388 111.231 129.889 110.65C129.393 110.072 129.18 109.534 129.18 109.03C129.18 108.526 129.393 107.988 129.889 107.41C130.388 106.829 131.153 106.231 132.197 105.628C134.286 104.42 137.398 103.238 141.452 102.104C149.553 99.8377 161.299 97.791 175.842 96.0703C204.92 92.6295 245.104 90.5 289.501 90.5C333.897 90.5 374.081 92.6295 403.159 96.0703C417.702 97.791 429.448 99.8377 437.549 102.104C441.603 103.238 444.715 104.42 446.804 105.628C447.848 106.231 448.613 106.829 449.112 107.41C449.608 107.988 449.821 108.526 449.821 109.03Z" stroke="black"/>
<path class = 'homepageMovingLine' d="M429.451 125.619C429.451 126.04 429.273 126.496 428.847 126.993C428.417 127.493 427.756 128.011 426.848 128.536C425.03 129.587 422.318 130.617 418.779 131.607C411.709 133.585 401.455 135.372 388.756 136.875C363.364 139.879 328.272 141.739 289.501 141.739C250.73 141.739 215.638 139.879 190.246 136.875C177.547 135.372 167.293 133.585 160.223 131.607C156.684 130.617 153.972 129.587 152.155 128.536C151.246 128.011 150.585 127.493 150.155 126.993C149.729 126.496 149.551 126.04 149.551 125.619C149.551 125.198 149.729 124.743 150.155 124.246C150.585 123.746 151.246 123.228 152.155 122.703C153.972 121.652 156.684 120.622 160.223 119.632C167.293 117.654 177.547 115.867 190.246 114.364C215.638 111.36 250.73 109.5 289.501 109.5C328.272 109.5 363.364 111.36 388.756 114.364C401.455 115.867 411.709 117.654 418.779 119.632C422.318 120.622 425.03 121.652 426.848 122.703C427.756 123.228 428.417 123.746 428.847 124.246C429.273 124.743 429.451 125.198 429.451 125.619Z" stroke="black"/>
<path class = 'homepageMovingLine' d="M409.081 142.209C409.081 142.547 408.939 142.92 408.582 143.336C408.222 143.755 407.664 144.193 406.891 144.64C405.345 145.534 403.033 146.412 400.01 147.258C393.971 148.948 385.208 150.475 374.352 151.76C352.647 154.328 322.647 155.918 289.501 155.918C256.356 155.918 226.356 154.328 204.651 151.76C193.795 150.475 185.032 148.948 178.993 147.258C175.969 146.412 173.657 145.534 172.112 144.64C171.339 144.193 170.781 143.755 170.421 143.336C170.064 142.92 169.922 142.547 169.922 142.209C169.922 141.871 170.064 141.498 170.421 141.082C170.781 140.663 171.339 140.225 172.112 139.778C173.657 138.884 175.969 138.006 178.993 137.16C185.032 135.47 193.795 133.943 204.651 132.658C226.356 130.09 256.356 128.5 289.501 128.5C322.647 128.5 352.647 130.09 374.352 132.658C385.208 133.943 393.971 135.47 400.01 137.16C403.033 138.006 405.345 138.884 406.891 139.778C407.664 140.225 408.222 140.663 408.582 141.082C408.939 141.498 409.081 141.871 409.081 142.209Z" stroke="black"/>
<path class = 'homepageMovingLine' d="M394.073 154.433C394.073 154.709 393.957 155.022 393.651 155.378C393.342 155.738 392.861 156.117 392.188 156.506C390.842 157.284 388.825 158.051 386.181 158.791C380.901 160.268 373.238 161.604 363.74 162.728C344.751 164.975 318.504 166.366 289.503 166.366C260.502 166.366 234.255 164.975 215.267 162.728C205.769 161.604 198.105 160.268 192.825 158.791C190.181 158.051 188.164 157.284 186.819 156.506C186.146 156.117 185.664 155.738 185.355 155.378C185.05 155.022 184.934 154.709 184.934 154.433C184.934 154.156 185.05 153.843 185.355 153.487C185.664 153.128 186.146 152.749 186.819 152.36C188.164 151.582 190.181 150.815 192.825 150.075C198.105 148.598 205.769 147.262 215.267 146.138C234.255 143.891 260.502 142.5 289.503 142.5C318.504 142.5 344.751 143.891 363.74 146.138C373.238 147.262 380.901 148.598 386.181 150.075C388.825 150.815 390.842 151.582 392.188 152.36C392.861 152.749 393.342 153.128 393.651 153.487C393.957 153.843 394.073 154.156 394.073 154.433Z" stroke="black"/>
<path class = 'homepageMovingLine' d="M379.065 166.657C379.065 166.872 378.975 167.124 378.72 167.421C378.463 167.72 378.058 168.04 377.485 168.372C376.339 169.034 374.617 169.69 372.353 170.323C367.832 171.588 361.268 172.732 353.128 173.696C336.855 175.621 314.361 176.813 289.505 176.813C264.649 176.813 242.155 175.621 225.882 173.696C217.742 172.732 211.178 171.588 206.657 170.323C204.393 169.69 202.671 169.034 201.525 168.372C200.952 168.04 200.547 167.72 200.29 167.421C200.035 167.124 199.945 166.872 199.945 166.657C199.945 166.442 200.035 166.189 200.29 165.893C200.547 165.593 200.952 165.273 201.525 164.942C202.671 164.279 204.393 163.624 206.657 162.99C211.178 161.726 217.742 160.581 225.882 159.618C242.155 157.692 264.649 156.5 289.505 156.5C314.361 156.5 336.855 157.692 353.128 159.618C361.268 160.581 367.832 161.726 372.353 162.99C374.617 163.624 376.339 164.279 377.485 164.942C378.058 165.273 378.463 165.593 378.72 165.893C378.975 166.189 379.065 166.442 379.065 166.657Z" stroke="black"/>
<path class = 'homepageMovingLine' d="M367.271 176.261C367.271 176.428 367.201 176.633 366.987 176.882C366.77 177.135 366.425 177.409 365.93 177.695C364.942 178.267 363.451 178.835 361.485 179.385C357.562 180.482 351.861 181.476 344.788 182.313C330.65 183.986 311.104 185.022 289.504 185.022C267.905 185.022 248.359 183.986 234.221 182.313C227.148 181.476 221.447 180.482 217.524 179.385C215.558 178.835 214.067 178.267 213.079 177.695C212.584 177.409 212.239 177.135 212.022 176.882C211.808 176.633 211.738 176.428 211.738 176.261C211.738 176.094 211.808 175.889 212.022 175.64C212.239 175.387 212.584 175.113 213.079 174.828C214.067 174.256 215.558 173.688 217.524 173.138C221.447 172.04 227.148 171.046 234.221 170.209C248.359 168.536 267.905 167.5 289.504 167.5C311.104 167.5 330.65 168.536 344.788 170.209C351.861 171.046 357.562 172.04 361.485 173.138C363.451 173.688 364.942 174.256 365.93 174.828C366.425 175.113 366.77 175.387 366.987 175.64C367.201 175.889 367.271 176.094 367.271 176.261Z" stroke="black"/>
</svg>
