<svg width="30" height="30" viewBox="0 0 30 30" fill="none" xmlns="http://www.w3.org/2000/svg">
<path fill-rule="evenodd" clip-rule="evenodd" d="M15.0011 4.7334C12.2128 4.7334 11.8632 4.74522 10.7681 4.79518C9.67535 4.84502 8.92902 5.01859 8.27598 5.2724C7.60086 5.53473 7.02832 5.88579 6.45752 6.45654C5.88677 7.02733 5.53571 7.59988 5.27338 8.27501C5.01957 8.92804 4.846 9.67436 4.79616 10.7671C4.7462 11.8622 4.73438 12.2118 4.73438 15.0001C4.73438 17.7883 4.7462 18.138 4.79616 19.233C4.846 20.3258 5.01957 21.0721 5.27338 21.7251C5.53571 22.4002 5.88677 22.9728 6.45752 23.5436C7.02832 24.1143 7.60086 24.4654 8.27598 24.7278C8.92902 24.9815 9.67535 25.1551 10.7681 25.2049C11.8632 25.2549 12.2128 25.2667 15.0011 25.2667C17.7893 25.2667 18.1389 25.2549 19.234 25.2049C20.3267 25.1551 21.0731 24.9815 21.7261 24.7278C22.4012 24.4654 22.9738 24.1143 23.5446 23.5436C24.1153 22.9728 24.4664 22.4002 24.7287 21.7251C24.9825 21.0721 25.1561 20.3258 25.2059 19.233C25.2559 18.138 25.2677 17.7883 25.2677 15.0001C25.2677 12.2118 25.2559 11.8622 25.2059 10.7671C25.1561 9.67436 24.9825 8.92804 24.7287 8.27501C24.4664 7.59988 24.1153 7.02733 23.5446 6.45654C22.9738 5.88579 22.4012 5.53473 21.7261 5.2724C21.0731 5.01859 20.3267 4.84502 19.234 4.79518C18.1389 4.74522 17.7893 4.7334 15.0011 4.7334ZM15.0011 6.58324C17.7424 6.58324 18.0671 6.59372 19.1497 6.64311C20.1506 6.68876 20.6943 6.85601 21.056 6.99661C21.5353 7.18285 21.8773 7.40533 22.2365 7.76461C22.5958 8.12385 22.8182 8.46586 23.0045 8.94508C23.1451 9.30685 23.3123 9.85046 23.358 10.8515C23.4074 11.934 23.4179 12.2588 23.4179 15.0001C23.4179 17.7414 23.4074 18.0661 23.358 19.1487C23.3123 20.1497 23.1451 20.6933 23.0045 21.055C22.8182 21.5343 22.5958 21.8763 22.2365 22.2355C21.8773 22.5948 21.5353 22.8173 21.056 23.0035C20.6943 23.1441 20.1506 23.3114 19.1497 23.357C18.0672 23.4064 17.7426 23.4169 15.0011 23.4169C12.2595 23.4169 11.9349 23.4064 10.8524 23.357C9.85144 23.3114 9.30783 23.1441 8.94606 23.0035C8.46684 22.8173 8.12482 22.5948 7.76558 22.2355C7.40634 21.8763 7.18383 21.5343 6.99758 21.055C6.85698 20.6933 6.68973 20.1497 6.64409 19.1487C6.59469 18.0661 6.58422 17.7414 6.58422 15.0001C6.58422 12.2588 6.59469 11.934 6.64409 10.8515C6.68973 9.85046 6.85698 9.30685 6.99758 8.94508C7.18383 8.46586 7.4063 8.12385 7.76558 7.76461C8.12482 7.40533 8.46684 7.18285 8.94606 6.99661C9.30783 6.85601 9.85144 6.68876 10.8524 6.64311C11.935 6.59372 12.2597 6.58324 15.0011 6.58324ZM15.0011 9.728C12.0893 9.728 9.72898 12.0884 9.72898 15.0001C9.72898 17.9118 12.0893 20.2721 15.0011 20.2721C17.9127 20.2721 20.2731 17.9118 20.2731 15.0001C20.2731 12.0884 17.9127 9.728 15.0011 9.728ZM15.0011 18.4223C13.111 18.4223 11.5788 16.8901 11.5788 15.0001C11.5788 13.11 13.111 11.5778 15.0011 11.5778C16.8911 11.5778 18.4233 13.11 18.4233 15.0001C18.4233 16.8901 16.8911 18.4223 15.0011 18.4223ZM21.7134 9.5197C21.7134 10.2001 21.1618 10.7517 20.4814 10.7517C19.801 10.7517 19.2494 10.2001 19.2494 9.5197C19.2494 8.83928 19.801 8.28768 20.4814 8.28768C21.1618 8.28768 21.7134 8.83928 21.7134 9.5197Z" fill="white" fill-opacity="0.8"/>
</svg>
