<svg width="32" height="32" viewBox="0 0 32 32" fill="none" xmlns="http://www.w3.org/2000/svg">
<path d="M29.2872 18.3671C29.169 18.0598 29.0235 17.7635 28.7999 17.4798C28.3563 16.9417 27.7963 16.6126 27.2399 16.3598C26.6799 16.1071 26.1054 15.9326 25.529 15.7962C24.9526 15.658 24.3708 15.5617 23.789 15.4889C22.6254 15.3471 21.4599 15.3017 20.2963 15.3271C19.2054 15.3526 18.1181 15.4435 17.0399 15.6108C16.9763 15.6108 16.9108 15.6126 16.8472 15.6144C16.8072 15.6144 16.7708 15.6326 16.7399 15.6562C16.1963 15.7508 15.6544 15.8617 15.1217 16.0108C14.5599 16.1689 14.0054 16.358 13.4799 16.6289C13.4163 16.6617 13.389 16.7398 13.4199 16.8035C13.4508 16.8708 13.5308 16.8998 13.5981 16.8689C14.1072 16.6326 14.6526 16.4708 15.2054 16.3417C15.6326 16.2417 16.0654 16.1653 16.4999 16.1035C17.2872 16.1162 18.0726 16.1598 18.8235 16.3162C19.0472 16.3635 19.2672 16.4235 19.4726 16.5017C19.6763 16.5817 19.8726 16.678 20.0126 16.8053C20.1563 16.9326 20.2235 17.0708 20.2072 17.2108C20.1944 17.3526 20.0944 17.5162 19.9544 17.6526C19.8144 17.7908 19.6363 17.9035 19.4472 17.9889C19.3999 18.0108 19.3526 18.0289 19.2999 18.0471L19.129 18.1126L18.7981 18.238C18.3617 18.4035 17.9217 18.5453 17.4744 18.6508C16.5799 18.8617 15.6581 18.938 14.7563 18.8198C13.8563 18.6998 12.989 18.3871 12.2126 17.9089C11.4108 17.3998 10.5526 16.9162 9.63263 16.578C8.71263 16.2344 7.70172 16.0817 6.73081 16.1489C5.7599 16.2071 4.82718 16.3544 3.88536 16.418C3.87809 16.418 3.87445 16.4217 3.86718 16.4235C3.86354 16.4235 3.85809 16.4253 3.85445 16.4253C3.76718 16.4271 3.689 16.4908 3.67809 16.5798C3.66536 16.6762 3.73081 16.7635 3.82536 16.7817C3.82536 16.7817 3.829 16.7835 3.83081 16.7835C3.83081 16.7835 3.83445 16.7835 3.83627 16.7835C4.02172 16.8289 4.11445 16.898 4.20172 17.0398C4.28718 17.1835 4.369 17.3689 4.44718 17.558L4.68172 18.1417C4.76536 18.3362 4.85263 18.5308 4.9399 18.7253C5.2799 19.5089 5.7199 20.2508 6.20172 20.9689C7.16536 22.4035 8.39445 23.6908 9.86354 24.658C10.5963 25.1417 11.3908 25.5344 12.2163 25.838C13.0435 26.1398 13.9035 26.3398 14.7726 26.4526C16.5035 26.6835 18.2999 26.5362 19.9744 26.0126C21.6417 25.4708 23.1926 24.5889 24.4817 23.4162C25.1254 22.8308 25.7072 22.1762 26.1963 21.4489C26.4399 21.0853 26.6599 20.7035 26.8363 20.2926C26.9235 20.0871 26.9999 19.8744 27.0563 19.6489C27.0835 19.5362 27.1072 19.4217 27.1199 19.3017C27.1326 19.178 27.1344 19.0635 27.1363 18.9489C27.1363 18.4871 27.0108 18.0053 26.7508 17.6071C26.489 17.2108 26.1235 16.9126 25.7417 16.6835C25.7399 16.6835 25.7363 16.6798 25.7344 16.6798C26.1254 16.8071 26.5072 16.9562 26.8635 17.1344C27.3399 17.3744 27.7799 17.6798 28.0526 18.0489C28.1799 18.2235 28.2835 18.4544 28.3599 18.6853C28.4344 18.918 28.4799 19.1617 28.4963 19.4126C28.5599 20.418 28.189 21.458 27.6544 22.3835C27.1163 23.3144 26.4035 24.1598 25.5981 24.898C24.7908 25.6362 23.889 26.2726 22.9326 26.8035C21.9763 27.3362 20.9544 27.7417 19.9072 28.0398C18.8599 28.338 17.7763 28.4998 16.6908 28.5253C15.5999 28.5453 14.5035 28.4598 13.4417 28.2217C12.3763 27.9962 11.3472 27.6235 10.3672 27.1526C8.41445 26.1908 6.71081 24.7326 5.43627 22.9326C5.12354 22.4798 4.82536 22.0126 4.56172 21.5235C4.4199 21.2853 4.309 21.0289 4.1799 20.7835C4.06718 20.5289 3.94718 20.278 3.84536 20.018C3.74354 19.758 3.63809 19.498 3.55263 19.2308L3.41445 18.8326L3.29081 18.4289C3.12536 17.8908 3.00354 17.338 2.88354 16.7835V16.778C2.85445 16.6526 2.73809 16.5617 2.60536 16.5708C2.4599 16.5817 2.35081 16.7071 2.3599 16.8526C2.52354 19.1835 3.209 21.5235 4.46718 23.5726C5.72536 25.6144 7.55263 27.338 9.71081 28.4508C11.869 29.5708 14.3181 30.0762 16.729 30.0253C17.9435 29.9926 19.1526 29.8071 20.3163 29.4708C21.4817 29.1398 22.5963 28.6435 23.6381 28.038C24.6817 27.4326 25.6435 26.6908 26.5035 25.8435C27.3599 24.9944 28.1199 24.0344 28.6872 22.9453C28.969 22.4017 29.2017 21.8253 29.3563 21.2162C29.509 20.6089 29.5799 19.9653 29.509 19.318C29.4726 18.9944 29.3981 18.6708 29.2835 18.3617L29.2872 18.3671ZM6.75263 16.6253C7.21809 16.6198 7.67627 16.6435 8.12536 16.7217C8.57445 16.798 9.01445 16.9289 9.44354 17.0944C10.3035 17.4326 11.0999 17.9108 11.8999 18.4235C12.7363 18.9526 13.6926 19.3089 14.6817 19.438C15.669 19.5671 16.6744 19.4889 17.6254 19.2471C18.1017 19.1271 18.569 18.9744 19.0181 18.7926L19.3508 18.6562L19.5108 18.5908C19.569 18.5671 19.6344 18.5398 19.6926 18.5126C19.9344 18.3962 20.1599 18.2471 20.3563 18.0471C20.5472 17.8489 20.7235 17.5871 20.7454 17.2489C20.7563 17.0835 20.7163 16.9089 20.6399 16.7653C20.5635 16.6217 20.4581 16.5071 20.3472 16.4162C20.2854 16.3653 20.2199 16.3217 20.1563 16.2817C20.3126 16.3162 20.469 16.3526 20.6217 16.3962C21.1544 16.5435 21.6872 16.7398 22.0908 17.0562C22.289 17.2144 22.4435 17.4053 22.4908 17.6071C22.5435 17.8071 22.4908 18.0253 22.3672 18.2326C22.2435 18.4417 22.0635 18.6344 21.8599 18.8089C21.6563 18.9835 21.4326 19.1435 21.1999 19.2908C20.7308 19.5853 20.2272 19.8326 19.7072 20.0398C18.6672 20.4508 17.5599 20.7053 16.4454 20.7798C15.3326 20.858 14.2017 20.758 13.1508 20.3998C12.6272 20.2198 12.1235 19.9817 11.6635 19.6744C11.4363 19.518 11.2108 19.3562 11.0072 19.1708C10.7981 18.9926 10.5744 18.7853 10.3508 18.6035C9.44899 17.8617 8.43445 17.2308 7.31263 16.8671C7.00718 16.7689 6.69627 16.6926 6.38172 16.6344C6.50536 16.6289 6.62718 16.6253 6.749 16.6235L6.75263 16.6253ZM7.20172 17.1962C8.2599 17.578 9.21263 18.2089 10.0599 18.9489C10.2763 19.1362 10.4672 19.3253 10.6908 19.5289C10.909 19.7326 11.1472 19.9108 11.3908 20.0835C11.8817 20.4217 12.4217 20.6853 12.9817 20.8889C14.1054 21.2871 15.3072 21.4144 16.4817 21.3435C17.6599 21.2635 18.8181 20.9962 19.9126 20.5617C20.4599 20.3435 20.9908 20.0817 21.4944 19.7653C21.7454 19.6035 21.9926 19.4344 22.2217 19.2289C22.4508 19.0253 22.6672 18.7944 22.8326 18.5053C22.9981 18.2235 23.0981 17.8398 22.9963 17.478C22.9017 17.1289 22.669 16.8708 22.429 16.678C22.6417 16.7489 22.8508 16.8253 23.0508 16.9162C23.3581 17.0562 23.6508 17.2235 23.8981 17.4289C24.1472 17.6308 24.3454 17.8762 24.4508 18.1453C24.6708 18.6853 24.4508 19.3198 24.0544 19.8344C23.6599 20.3562 23.1272 20.7998 22.5599 21.1798C21.989 21.558 21.3672 21.8835 20.7363 22.1526C20.1017 22.4126 19.4417 22.618 18.7654 22.7435C16.0599 23.2635 13.1854 22.6689 10.8799 21.1617C10.3017 20.7871 9.76172 20.3508 9.26354 19.8689C9.01809 19.6326 8.7599 19.3689 8.50536 19.1198C8.24718 18.8689 7.98899 18.6198 7.72354 18.3762C7.19263 17.8889 6.64536 17.4089 6.00536 17.0198C5.87809 16.9435 5.74536 16.8726 5.60718 16.8071C6.15081 16.8798 6.68536 17.0089 7.19627 17.198L7.20172 17.1962ZM26.3126 17.8944C26.5072 18.2071 26.5963 18.5708 26.5908 18.9489C26.5908 19.1453 26.5581 19.3089 26.4999 19.4926C26.4417 19.6726 26.3654 19.8526 26.2744 20.0271C26.0944 20.378 25.8708 20.7144 25.6254 21.0344C25.1308 21.6726 24.5508 22.2471 23.9235 22.7617C22.669 23.7871 21.2272 24.5871 19.6817 25.038C18.1435 25.5144 16.5108 25.6344 14.909 25.4326C14.1108 25.3308 13.3254 25.1508 12.5708 24.8798C11.8181 24.6053 11.0944 24.2508 10.4217 23.8108C9.06899 22.9435 7.91445 21.7689 6.96718 20.4417C6.48899 19.7798 6.08536 19.0635 5.64536 18.358L5.33081 17.8198L5.00172 17.2762C4.93809 17.1762 4.87445 17.0726 4.80172 16.9689C4.81809 16.9744 4.83627 16.978 4.85263 16.9835C5.17081 17.0853 5.46536 17.2417 5.74718 17.4308C6.31081 17.8126 6.81809 18.3053 7.3199 18.798C7.57081 19.0471 7.81445 19.3017 8.05809 19.558C8.30354 19.818 8.53081 20.0744 8.79263 20.3398C9.30354 20.8653 9.86354 21.3489 10.469 21.7689C11.6744 22.6144 13.0617 23.2198 14.5126 23.5089C15.2381 23.6526 15.9781 23.7326 16.7163 23.7235C17.4563 23.7217 18.1944 23.6435 18.9181 23.4926C19.6417 23.3471 20.349 23.1162 21.0272 22.8253C21.7035 22.5253 22.3454 22.178 22.9563 21.758C23.5617 21.3362 24.1435 20.8508 24.5944 20.2217C24.8181 19.9071 25.009 19.5526 25.1072 19.1508C25.2072 18.7526 25.1908 18.2998 25.0235 17.9071C24.8599 17.5144 24.5781 17.198 24.2708 16.9598C23.9617 16.718 23.6235 16.538 23.2799 16.3908C23.1454 16.3344 23.009 16.2835 22.8726 16.2344C22.9835 16.2544 23.0944 16.2744 23.2035 16.2962C24.0072 16.4708 24.8108 16.7035 25.4872 17.1126C25.8217 17.3198 26.1144 17.5762 26.3126 17.8889V17.8944ZM29.6799 12.2871C29.1872 10.8544 28.5108 9.47984 27.6617 8.2053C26.8035 6.93803 25.7544 5.7853 24.5308 4.83621C23.3126 3.88166 21.9199 3.1453 20.4435 2.65803C18.9654 2.17803 17.4017 1.95803 15.8454 2.0053C14.289 2.05621 12.7454 2.39439 11.3035 2.97257C9.86354 3.55621 8.52172 4.37439 7.3599 5.39621C6.19263 6.41075 5.20354 7.61621 4.41445 8.93075C3.63627 10.2508 3.03627 11.6671 2.64172 13.1326C2.59627 13.3017 2.689 13.4817 2.85627 13.5398C3.03263 13.6017 3.22536 13.5089 3.28718 13.3326C4.24718 10.5726 5.85081 8.05075 8.06172 6.2253C9.16536 5.31803 10.4035 4.57621 11.7326 4.0653C13.0581 3.55075 14.4672 3.24348 15.8872 3.2053C18.729 3.09621 21.5835 3.99621 23.8817 5.69439C25.0344 6.54166 26.0526 7.57439 26.9144 8.73621C27.7872 9.89075 28.4835 11.178 29.0708 12.5198L29.0744 12.5253C29.1417 12.678 29.3163 12.7562 29.4763 12.6998C29.6454 12.6417 29.7363 12.458 29.6781 12.2889L29.6799 12.2871ZM22.9654 9.07803C23.5399 9.67803 24.0272 10.3598 24.4508 11.0835C24.4908 11.1544 24.5781 11.1798 24.649 11.1453C24.7254 11.1089 24.7563 11.0162 24.7181 10.9417C24.3399 10.1671 23.8563 9.44166 23.289 8.78348C22.7163 8.13075 22.0526 7.55439 21.3181 7.08166C19.8472 6.13439 18.0872 5.64712 16.3363 5.66712C14.5835 5.69984 12.8399 6.25621 11.409 7.26348C10.6944 7.76712 10.0563 8.37439 9.51809 9.05803C8.98718 9.7453 8.54718 10.5017 8.22354 11.3017C8.19445 11.3744 8.22536 11.4598 8.29809 11.4962C8.37445 11.5344 8.46536 11.5017 8.50172 11.4271C8.87263 10.6762 9.31809 9.9653 9.8599 9.33803C10.3926 8.7053 11.0144 8.14712 11.7017 7.69439C12.3908 7.24348 13.1344 6.87621 13.9217 6.63439C14.7054 6.38712 15.5272 6.26166 16.3472 6.25075C17.169 6.23257 17.9926 6.33439 18.7854 6.54894C19.5799 6.76348 20.3381 7.09984 21.0454 7.52166C21.7526 7.94712 22.3981 8.47439 22.9654 9.07984V9.07803ZM18.7108 9.16166C18.0017 8.70894 17.1526 8.46166 16.3017 8.46712C15.4508 8.47439 14.609 8.72712 13.8999 9.17803C13.1872 9.6253 12.6126 10.2617 12.2199 10.9798C12.1963 11.0217 12.2072 11.0762 12.2472 11.1071C12.2908 11.1398 12.3544 11.1326 12.3872 11.0871C12.869 10.4598 13.4617 9.93803 14.129 9.5653C14.7999 9.19803 15.5526 8.99257 16.3054 8.99257C17.0581 8.9853 17.8072 9.18894 18.4726 9.55803C19.1381 9.93075 19.7217 10.4598 20.2217 11.0708C20.2563 11.1144 20.3181 11.1271 20.3654 11.098C20.4181 11.0671 20.4363 10.998 20.4054 10.9435C19.9908 10.2417 19.4235 9.60348 18.7072 9.15621L18.7108 9.16166Z" fill="white" fill-opacity="0.8"/>
</svg>
