<svg width="30" height="30" viewBox="0 0 30 30" fill="none" xmlns="http://www.w3.org/2000/svg">
<path d="M15.4999 4.5C9.70111 4.5 5 9.20109 5 15.0001C5 20.7993 9.70111 25.5 15.4999 25.5C21.2994 25.5 26 20.7993 26 15.0001C26 9.20147 21.2995 4.5 15.4999 4.5ZM20.3151 19.6441C20.1271 19.9526 19.7233 20.0504 19.4149 19.861C16.9496 18.3551 13.8461 18.0141 10.1912 18.8492C9.83903 18.9294 9.48795 18.7087 9.40771 18.3564C9.32709 18.0041 9.54688 17.653 9.89996 17.5727C13.8997 16.6589 17.3305 17.0524 20.0982 18.7438C20.4067 18.9332 20.5045 19.3357 20.3151 19.6441ZM21.6003 16.7851C21.3633 17.1702 20.8593 17.2919 20.4744 17.0549C17.652 15.32 13.3497 14.8176 10.0114 15.831C9.57848 15.9618 9.12121 15.7178 8.98981 15.2856C8.85941 14.8526 9.10353 14.3962 9.53573 14.2645C13.349 13.1075 18.0896 13.668 21.3307 15.6597C21.7157 15.8967 21.8373 16.4006 21.6003 16.7851ZM21.7107 13.8079C18.3266 11.7978 12.7433 11.613 9.51228 12.5937C8.99344 12.751 8.44477 12.4581 8.28754 11.9393C8.13031 11.4202 8.42295 10.8719 8.94216 10.7141C12.6511 9.58816 18.8168 9.8057 22.713 12.1187C23.1806 12.3957 23.3336 12.9984 23.0565 13.4645C22.7807 13.9311 22.1758 14.085 21.7107 13.8079Z" fill="white" fill-opacity="0.8"/>
</svg>
