<svg width="30" height="30" viewBox="0 0 30 30" fill="none" xmlns="http://www.w3.org/2000/svg">
<path fill-rule="evenodd" clip-rule="evenodd" d="M23.4991 7.48554C24.4843 7.74699 25.261 8.51265 25.5263 9.48373C26.0189 11.2578 25.9999 14.9554 25.9999 14.9554C25.9999 14.9554 25.9999 18.6343 25.5263 20.4084C25.261 21.3795 24.4843 22.1452 23.4991 22.4066C21.6993 22.8735 14.5 22.8735 14.5 22.8735C14.5 22.8735 7.31959 22.8735 5.50081 22.3879C4.51564 22.1265 3.73888 21.3608 3.47364 20.3897C3 18.6343 3 14.9367 3 14.9367C3 14.9367 3 11.2578 3.47364 9.48373C3.73888 8.51265 4.53459 7.72831 5.50081 7.46687C7.30064 7 14.5 7 14.5 7C14.5 7 21.6993 7 23.4991 7.48554ZM18.1938 14.9364L12.207 18.3352V11.5376L18.1938 14.9364Z" fill="white" fill-opacity="0.8"/>
</svg>
